<svg width="100" xmlns="http://www.w3.org/2000/svg" height="100" fill="none"><g data-testid="IconLight"><defs><clipPath id="a" class="frame-clip frame-clip-def"><rect rx="0" ry="0" width="100" height="100"/></clipPath></defs><g clip-path="url(#a)"><g class="fills"><rect rx="0" ry="0" width="100" height="100" class="frame-background"/></g><g class="frame-children"><g data-testid="svg" class="lucide lucide-heart" style="fill: rgb(0, 0, 0);"><g data-testid="svg-path"><path d="M60.292 69.583c2.297-2.251 4.625-4.948 4.625-8.479a8.48 8.48 0 0 0-8.479-8.479c-2.714 0-4.625.771-6.938 3.083-2.312-2.312-4.224-3.083-6.937-3.083a8.48 8.48 0 0 0-8.48 8.479c0 3.546 2.313 6.244 4.625 8.479L49.5 80.375Z" fill="none" style="fill: none;" class="fills"/><g fill="none" stroke-linejoin="round" class="strokes"><path d="M60.292 69.583c2.297-2.251 4.625-4.948 4.625-8.479a8.48 8.48 0 0 0-8.479-8.479c-2.714 0-4.625.771-6.938 3.083-2.312-2.312-4.224-3.083-6.937-3.083a8.48 8.48 0 0 0-8.48 8.479c0 3.546 2.313 6.244 4.625 8.479L49.5 80.375Z" style="fill: none; stroke-width: 5; stroke: rgb(24, 24, 27); stroke-opacity: 1;" class="stroke-shape"/></g></g></g><g data-testid="svg" class="lucide lucide-calendar" style="fill: rgb(0, 0, 0);"><g data-testid="svg-path"><path d="M32 6.5v17" fill="none" style="fill: none;" class="fills"/><g fill="none" stroke-linejoin="round" class="strokes"><path d="M32 6.5v17" style="fill: none; stroke-width: 7; stroke: rgb(24, 24, 27); stroke-opacity: 1;" class="stroke-shape"/></g></g><g data-testid="svg-path"><path d="M66 6.5v17" fill="none" style="fill: none;" class="fills"/><g fill="none" stroke-linejoin="round" class="strokes"><path d="M66 6.5v17" style="fill: none; stroke-width: 7; stroke: rgb(24, 24, 27); stroke-opacity: 1;" class="stroke-shape"/></g></g><g data-testid="svg-rect"><rect width="76.5" height="76.5" x="10.75" style="fill: none;" ry="2" fill="none" rx="2" y="15" class="fills"/><g fill="none" stroke-linejoin="round" class="strokes"><rect rx="2" ry="2" x="10.75" y="15" width="76.5" height="76.5" style="fill: none; stroke-width: 7; stroke: rgb(24, 24, 27); stroke-opacity: 1;" class="stroke-shape"/></g></g><g data-testid="svg-path"><path d="M10.75 40.5h76.5" fill="none" style="fill: none;" class="fills"/><g fill="none" stroke-linejoin="round" class="strokes"><path d="M10.75 40.5h76.5" style="fill: none; stroke-width: 7; stroke: rgb(24, 24, 27); stroke-opacity: 1;" class="stroke-shape"/></g></g></g></g></g></g></svg>